<?xml version="1.0" encoding="utf-8"?>
<!DOCTYPE svg PUBLIC "-//W3C//DTD SVG 1.0//EN" "http://www.w3.org/TR/2001/REC-SVG-20010904/DTD/svg10.dtd">
<svg version="1.0" xmlns="http://www.w3.org/2000/svg" width="2048px" height="2048px" viewBox="0 0 2048 2048" preserveAspectRatio="xMidYMid meet">
 <g fill="#0f2c38" stroke="#0f2c38" stroke-width="1">
  <path d="M981.4 2045.9 c-248.9 -10.8 -485.3 -111.7 -664.9 -283.8 -139 -133.3 -237.6 -303.1 -284.5 -490.1 -47.5 -189.2 -39.8 -386.5 22.1 -571.3 31.5 -93.9 76.2 -182.8 131.7 -262.2 126.4 -180.6 305.4 -314.2 514.9 -384.4 221.9 -74.4 459.9 -70.2 680.9 12 76.1 28.3 154.5 69.1 221.4 115.2 102.1 70.4 189.3 157.1 260.1 258.7 96.4 138.2 157.5 299.6 176.8 467 12.3 106.3 8 211 -13 316.5 -23.5 117.8 -67.4 230.2 -130.1 332.9 -15.3 25 -18.4 29.7 -32.6 50.1 -71.1 102 -155.7 186.6 -257.7 257.7 -47.3 33 -104.6 65.6 -157.5 89.8 -145.9 66.7 -309.4 98.8 -467.6 91.9z m98.6 -203.9 c170.6 -12.6 328.5 -74.5 459.3 -180.3 31.2 -25.2 71.6 -63.7 96.8 -92.2 106.9 -120.8 174 -263 198.3 -420.6 1.4 -9.1 2.6 -18 2.6 -19.7 l0 -3.2 -209 0 -208.9 0 -1.1 4.3 c-0.5 2.3 -3.7 12.3 -6.9 22.2 -48.3 147.9 -178.7 255.8 -334 276.5 -80 10.6 -162.9 -3.3 -235.4 -39.7 -16.3 -8.1 -25.3 -13.4 -42.7 -24.9 -69.5 -46 -122.9 -111.5 -153.8 -188.4 -4.6 -11.6 -12.7 -35.8 -15.2 -45.7 l-1.1 -4.3 -208.9 0 -209 0 0 3.2 c0 1.7 1.2 10.6 2.6 19.7 30.2 195.6 128.6 371.4 279.9 500.2 84.1 71.6 185 126.8 289.5 158.5 67.3 20.4 131 31.6 201.5 35.4 20.3 1 75.2 0.5 95.5 -1z m-41.6 -613 c64.5 -4.7 122.6 -38.7 157.9 -92.5 23.9 -36.5 35.8 -82.8 32.7 -126.7 -5.3 -73.9 -48.4 -138 -114.5 -170.3 -30.1 -14.7 -56.4 -20.7 -90.5 -20.7 -34 0 -60.1 5.9 -90.5 20.7 -54 26.1 -94.2 75.6 -108.9 134.4 -8 31.4 -8 68.8 0 100.2 12.5 49.9 43.8 93.9 86.9 122.2 27.3 17.9 63.8 30.3 95.9 32.6 16.1 1.2 15.8 1.2 31 0.1z m-407.4 -314.7 c18.5 -70.7 63.6 -143.5 119.8 -193.6 41.6 -37.1 88.8 -65 139.7 -82.6 132.3 -45.8 278.8 -20.6 387.8 66.7 61.1 48.9 106.3 112.9 131.4 186.2 2.8 8 6.1 18.4 7.3 23.3 l2.3 8.7 208.9 0 208.8 0 0 -3.7 c0 -5.5 -4.6 -34.3 -9 -56.6 -68.3 -342.3 -348.8 -605.3 -694.8 -651.2 -128.5 -17 -256.7 -4 -380.2 38.7 -61.3 21.1 -124.5 52.5 -180.7 89.6 -129.2 85.4 -231.6 205.3 -295.3 345.7 -20.8 45.9 -39.5 100.4 -51 148.9 -6.6 28.1 -15.7 80.5 -15.1 87.4 0.1 0.9 42.6 1.2 208.9 1.2 l208.9 0 2.3 -8.7z"/>
 </g>
</svg>